ISO-10303-21;
HEADER;
/* Generated by software containing ST-Developer
 * from STEP Tools, Inc. (www.steptools.com) 
 */

FILE_DESCRIPTION(
/* description */ (''),
/* implementation_level */ '2;1');

FILE_NAME(
/* name */ 'house v1.step',
/* time_stamp */ '2026-07-07T19:55:22-04:00',
/* author */ (''),
/* organization */ (''),
/* preprocessor_version */ 'ST-DEVELOPER v20.1',
/* originating_system */ 'Autodesk Translation Framework v15.8.0.0',
/* authorisation */ '');

FILE_SCHEMA (('AUTOMOTIVE_DESIGN { 1 0 10303 214 3 1 1 }'));
ENDSEC;

DATA;
#10=MECHANICAL_DESIGN_GEOMETRIC_PRESENTATION_REPRESENTATION('',(#13,#14),
#796);
#11=SHAPE_REPRESENTATION_RELATIONSHIP('SRR','None',#803,#12);
#12=ADVANCED_BREP_SHAPE_REPRESENTATION('',(#15,#16),#795);
#13=STYLED_ITEM('',(#812),#15);
#14=STYLED_ITEM('',(#812),#16);
#15=MANIFOLD_SOLID_BREP('Body1',#492);
#16=MANIFOLD_SOLID_BREP('Body2',#493);
#17=FACE_OUTER_BOUND('',#46,.T.);
#18=FACE_OUTER_BOUND('',#47,.T.);
#19=FACE_OUTER_BOUND('',#48,.T.);
#20=FACE_OUTER_BOUND('',#49,.T.);
#21=FACE_OUTER_BOUND('',#50,.T.);
#22=FACE_OUTER_BOUND('',#51,.T.);
#23=FACE_OUTER_BOUND('',#52,.T.);
#24=FACE_OUTER_BOUND('',#53,.T.);
#25=FACE_OUTER_BOUND('',#54,.T.);
#26=FACE_OUTER_BOUND('',#55,.T.);
#27=FACE_OUTER_BOUND('',#56,.T.);
#28=FACE_OUTER_BOUND('',#57,.T.);
#29=FACE_OUTER_BOUND('',#58,.T.);
#30=FACE_OUTER_BOUND('',#59,.T.);
#31=FACE_OUTER_BOUND('',#60,.T.);
#32=FACE_OUTER_BOUND('',#61,.T.);
#33=FACE_OUTER_BOUND('',#62,.T.);
#34=FACE_OUTER_BOUND('',#63,.T.);
#35=FACE_OUTER_BOUND('',#64,.T.);
#36=FACE_OUTER_BOUND('',#65,.T.);
#37=FACE_OUTER_BOUND('',#66,.T.);
#38=FACE_OUTER_BOUND('',#67,.T.);
#39=FACE_OUTER_BOUND('',#68,.T.);
#40=FACE_OUTER_BOUND('',#69,.T.);
#41=FACE_OUTER_BOUND('',#70,.T.);
#42=FACE_OUTER_BOUND('',#71,.T.);
#43=FACE_OUTER_BOUND('',#72,.T.);
#44=FACE_OUTER_BOUND('',#73,.T.);
#45=FACE_OUTER_BOUND('',#74,.T.);
#46=EDGE_LOOP('',(#306,#307,#308,#309));
#47=EDGE_LOOP('',(#310,#311,#312,#313));
#48=EDGE_LOOP('',(#314,#315,#316,#317));
#49=EDGE_LOOP('',(#318,#319,#320,#321));
#50=EDGE_LOOP('',(#322,#323,#324,#325));
#51=EDGE_LOOP('',(#326,#327,#328,#329,#330));
#52=EDGE_LOOP('',(#331,#332,#333,#334));
#53=EDGE_LOOP('',(#335,#336,#337,#338,#339));
#54=EDGE_LOOP('',(#340,#341,#342,#343,#344,#345,#346,#347));
#55=EDGE_LOOP('',(#348,#349,#350,#351));
#56=EDGE_LOOP('',(#352,#353,#354,#355));
#57=EDGE_LOOP('',(#356,#357,#358,#359));
#58=EDGE_LOOP('',(#360,#361,#362,#363));
#59=EDGE_LOOP('',(#364,#365,#366,#367));
#60=EDGE_LOOP('',(#368,#369,#370,#371));
#61=EDGE_LOOP('',(#372,#373,#374,#375));
#62=EDGE_LOOP('',(#376,#377,#378,#379));
#63=EDGE_LOOP('',(#380,#381,#382,#383,#384,#385,#386,#387));
#64=EDGE_LOOP('',(#388,#389,#390,#391,#392));
#65=EDGE_LOOP('',(#393,#394,#395,#396));
#66=EDGE_LOOP('',(#397,#398,#399,#400,#401));
#67=EDGE_LOOP('',(#402,#403,#404,#405));
#68=EDGE_LOOP('',(#406,#407,#408,#409));
#69=EDGE_LOOP('',(#410,#411,#412,#413));
#70=EDGE_LOOP('',(#414,#415,#416,#417));
#71=EDGE_LOOP('',(#418,#419,#420,#421));
#72=EDGE_LOOP('',(#422,#423,#424,#425));
#73=EDGE_LOOP('',(#426,#427,#428,#429));
#74=EDGE_LOOP('',(#430,#431,#432,#433));
#75=LINE('',#664,#139);
#76=LINE('',#666,#140);
#77=LINE('',#668,#141);
#78=LINE('',#669,#142);
#79=LINE('',#673,#143);
#80=LINE('',#675,#144);
#81=LINE('',#677,#145);
#82=LINE('',#678,#146);
#83=LINE('',#681,#147);
#84=LINE('',#683,#148);
#85=LINE('',#684,#149);
#86=LINE('',#687,#150);
#87=LINE('',#689,#151);
#88=LINE('',#690,#152);
#89=LINE('',#693,#153);
#90=LINE('',#695,#154);
#91=LINE('',#696,#155);
#92=LINE('',#699,#156);
#93=LINE('',#701,#157);
#94=LINE('',#703,#158);
#95=LINE('',#704,#159);
#96=LINE('',#706,#160);
#97=LINE('',#707,#161);
#98=LINE('',#710,#162);
#99=LINE('',#711,#163);
#100=LINE('',#712,#164);
#101=LINE('',#717,#165);
#102=LINE('',#719,#166);
#103=LINE('',#720,#167);
#104=LINE('',#721,#168);
#105=LINE('',#724,#169);
#106=LINE('',#725,#170);
#107=LINE('',#726,#171);
#108=LINE('',#729,#172);
#109=LINE('',#730,#173);
#110=LINE('',#733,#174);
#111=LINE('',#734,#175);
#112=LINE('',#737,#176);
#113=LINE('',#738,#177);
#114=LINE('',#741,#178);
#115=LINE('',#742,#179);
#116=LINE('',#745,#180);
#117=LINE('',#746,#181);
#118=LINE('',#748,#182);
#119=LINE('',#753,#183);
#120=LINE('',#754,#184);
#121=LINE('',#755,#185);
#122=LINE('',#758,#186);
#123=LINE('',#759,#187);
#124=LINE('',#762,#188);
#125=LINE('',#763,#189);
#126=LINE('',#765,#190);
#127=LINE('',#770,#191);
#128=LINE('',#772,#192);
#129=LINE('',#774,#193);
#130=LINE('',#775,#194);
#131=LINE('',#778,#195);
#132=LINE('',#780,#196);
#133=LINE('',#781,#197);
#134=LINE('',#784,#198);
#135=LINE('',#785,#199);
#136=LINE('',#788,#200);
#137=LINE('',#789,#201);
#138=LINE('',#791,#202);
#139=VECTOR('',#540,10.);
#140=VECTOR('',#541,10.);
#141=VECTOR('',#542,10.);
#142=VECTOR('',#543,10.);
#143=VECTOR('',#546,10.);
#144=VECTOR('',#547,10.);
#145=VECTOR('',#548,10.);
#146=VECTOR('',#549,10.);
#147=VECTOR('',#552,10.);
#148=VECTOR('',#553,10.);
#149=VECTOR('',#554,10.);
#150=VECTOR('',#557,10.);
#151=VECTOR('',#558,10.);
#152=VECTOR('',#559,10.);
#153=VECTOR('',#562,10.);
#154=VECTOR('',#563,10.);
#155=VECTOR('',#564,10.);
#156=VECTOR('',#567,10.);
#157=VECTOR('',#568,10.);
#158=VECTOR('',#569,10.);
#159=VECTOR('',#570,10.);
#160=VECTOR('',#573,10.);
#161=VECTOR('',#574,10.);
#162=VECTOR('',#577,10.);
#163=VECTOR('',#578,10.);
#164=VECTOR('',#579,10.);
#165=VECTOR('',#584,10.);
#166=VECTOR('',#585,10.);
#167=VECTOR('',#586,10.);
#168=VECTOR('',#587,10.);
#169=VECTOR('',#590,10.);
#170=VECTOR('',#591,10.);
#171=VECTOR('',#592,10.);
#172=VECTOR('',#595,10.);
#173=VECTOR('',#596,10.);
#174=VECTOR('',#599,10.);
#175=VECTOR('',#600,10.);
#176=VECTOR('',#603,10.);
#177=VECTOR('',#604,10.);
#178=VECTOR('',#607,10.);
#179=VECTOR('',#608,10.);
#180=VECTOR('',#611,10.);
#181=VECTOR('',#612,10.);
#182=VECTOR('',#615,10.);
#183=VECTOR('',#620,10.);
#184=VECTOR('',#621,10.);
#185=VECTOR('',#622,10.);
#186=VECTOR('',#625,10.);
#187=VECTOR('',#626,10.);
#188=VECTOR('',#629,10.);
#189=VECTOR('',#630,10.);
#190=VECTOR('',#633,10.);
#191=VECTOR('',#638,10.);
#192=VECTOR('',#639,10.);
#193=VECTOR('',#640,10.);
#194=VECTOR('',#641,10.);
#195=VECTOR('',#644,10.);
#196=VECTOR('',#645,10.);
#197=VECTOR('',#646,10.);
#198=VECTOR('',#649,10.);
#199=VECTOR('',#650,10.);
#200=VECTOR('',#653,10.);
#201=VECTOR('',#654,10.);
#202=VECTOR('',#657,10.);
#203=VERTEX_POINT('',#662);
#204=VERTEX_POINT('',#663);
#205=VERTEX_POINT('',#665);
#206=VERTEX_POINT('',#667);
#207=VERTEX_POINT('',#671);
#208=VERTEX_POINT('',#672);
#209=VERTEX_POINT('',#674);
#210=VERTEX_POINT('',#676);
#211=VERTEX_POINT('',#680);
#212=VERTEX_POINT('',#682);
#213=VERTEX_POINT('',#686);
#214=VERTEX_POINT('',#688);
#215=VERTEX_POINT('',#692);
#216=VERTEX_POINT('',#694);
#217=VERTEX_POINT('',#698);
#218=VERTEX_POINT('',#700);
#219=VERTEX_POINT('',#702);
#220=VERTEX_POINT('',#709);
#221=VERTEX_POINT('',#715);
#222=VERTEX_POINT('',#716);
#223=VERTEX_POINT('',#718);
#224=VERTEX_POINT('',#723);
#225=VERTEX_POINT('',#728);
#226=VERTEX_POINT('',#732);
#227=VERTEX_POINT('',#736);
#228=VERTEX_POINT('',#740);
#229=VERTEX_POINT('',#744);
#230=VERTEX_POINT('',#751);
#231=VERTEX_POINT('',#752);
#232=VERTEX_POINT('',#757);
#233=VERTEX_POINT('',#761);
#234=VERTEX_POINT('',#768);
#235=VERTEX_POINT('',#769);
#236=VERTEX_POINT('',#771);
#237=VERTEX_POINT('',#773);
#238=VERTEX_POINT('',#777);
#239=VERTEX_POINT('',#779);
#240=VERTEX_POINT('',#783);
#241=VERTEX_POINT('',#787);
#242=EDGE_CURVE('',#203,#204,#75,.T.);
#243=EDGE_CURVE('',#203,#205,#76,.T.);
#244=EDGE_CURVE('',#206,#205,#77,.T.);
#245=EDGE_CURVE('',#204,#206,#78,.T.);
#246=EDGE_CURVE('',#207,#208,#79,.T.);
#247=EDGE_CURVE('',#207,#209,#80,.T.);
#248=EDGE_CURVE('',#210,#209,#81,.T.);
#249=EDGE_CURVE('',#208,#210,#82,.T.);
#250=EDGE_CURVE('',#211,#208,#83,.T.);
#251=EDGE_CURVE('',#212,#210,#84,.T.);
#252=EDGE_CURVE('',#211,#212,#85,.T.);
#253=EDGE_CURVE('',#213,#211,#86,.T.);
#254=EDGE_CURVE('',#214,#212,#87,.T.);
#255=EDGE_CURVE('',#213,#214,#88,.T.);
#256=EDGE_CURVE('',#215,#213,#89,.T.);
#257=EDGE_CURVE('',#216,#214,#90,.T.);
#258=EDGE_CURVE('',#215,#216,#91,.T.);
#259=EDGE_CURVE('',#217,#215,#92,.T.);
#260=EDGE_CURVE('',#218,#216,#93,.T.);
#261=EDGE_CURVE('',#219,#218,#94,.T.);
#262=EDGE_CURVE('',#219,#217,#95,.T.);
#263=EDGE_CURVE('',#219,#203,#96,.T.);
#264=EDGE_CURVE('',#205,#218,#97,.T.);
#265=EDGE_CURVE('',#220,#207,#98,.T.);
#266=EDGE_CURVE('',#220,#204,#99,.T.);
#267=EDGE_CURVE('',#209,#206,#100,.T.);
#268=EDGE_CURVE('',#221,#222,#101,.T.);
#269=EDGE_CURVE('',#223,#222,#102,.T.);
#270=EDGE_CURVE('',#223,#220,#103,.T.);
#271=EDGE_CURVE('',#220,#221,#104,.T.);
#272=EDGE_CURVE('',#222,#224,#105,.T.);
#273=EDGE_CURVE('',#217,#224,#106,.T.);
#274=EDGE_CURVE('',#217,#223,#107,.T.);
#275=EDGE_CURVE('',#224,#225,#108,.T.);
#276=EDGE_CURVE('',#215,#225,#109,.T.);
#277=EDGE_CURVE('',#225,#226,#110,.T.);
#278=EDGE_CURVE('',#213,#226,#111,.T.);
#279=EDGE_CURVE('',#226,#227,#112,.T.);
#280=EDGE_CURVE('',#211,#227,#113,.T.);
#281=EDGE_CURVE('',#227,#228,#114,.T.);
#282=EDGE_CURVE('',#208,#228,#115,.T.);
#283=EDGE_CURVE('',#228,#229,#116,.T.);
#284=EDGE_CURVE('',#207,#229,#117,.T.);
#285=EDGE_CURVE('',#229,#221,#118,.T.);
#286=EDGE_CURVE('',#230,#231,#119,.T.);
#287=EDGE_CURVE('',#231,#219,#120,.T.);
#288=EDGE_CURVE('',#230,#204,#121,.T.);
#289=EDGE_CURVE('',#232,#230,#122,.T.);
#290=EDGE_CURVE('',#232,#220,#123,.T.);
#291=EDGE_CURVE('',#233,#232,#124,.T.);
#292=EDGE_CURVE('',#233,#217,#125,.T.);
#293=EDGE_CURVE('',#231,#233,#126,.T.);
#294=EDGE_CURVE('',#234,#235,#127,.T.);
#295=EDGE_CURVE('',#236,#234,#128,.T.);
#296=EDGE_CURVE('',#237,#236,#129,.T.);
#297=EDGE_CURVE('',#235,#237,#130,.T.);
#298=EDGE_CURVE('',#234,#238,#131,.T.);
#299=EDGE_CURVE('',#239,#238,#132,.T.);
#300=EDGE_CURVE('',#236,#239,#133,.T.);
#301=EDGE_CURVE('',#235,#240,#134,.T.);
#302=EDGE_CURVE('',#238,#240,#135,.T.);
#303=EDGE_CURVE('',#241,#239,#136,.T.);
#304=EDGE_CURVE('',#237,#241,#137,.T.);
#305=EDGE_CURVE('',#240,#241,#138,.T.);
#306=ORIENTED_EDGE('',*,*,#242,.F.);
#307=ORIENTED_EDGE('',*,*,#243,.T.);
#308=ORIENTED_EDGE('',*,*,#244,.F.);
#309=ORIENTED_EDGE('',*,*,#245,.F.);
#310=ORIENTED_EDGE('',*,*,#246,.F.);
#311=ORIENTED_EDGE('',*,*,#247,.T.);
#312=ORIENTED_EDGE('',*,*,#248,.F.);
#313=ORIENTED_EDGE('',*,*,#249,.F.);
#314=ORIENTED_EDGE('',*,*,#250,.T.);
#315=ORIENTED_EDGE('',*,*,#249,.T.);
#316=ORIENTED_EDGE('',*,*,#251,.F.);
#317=ORIENTED_EDGE('',*,*,#252,.F.);
#318=ORIENTED_EDGE('',*,*,#253,.T.);
#319=ORIENTED_EDGE('',*,*,#252,.T.);
#320=ORIENTED_EDGE('',*,*,#254,.F.);
#321=ORIENTED_EDGE('',*,*,#255,.F.);
#322=ORIENTED_EDGE('',*,*,#256,.T.);
#323=ORIENTED_EDGE('',*,*,#255,.T.);
#324=ORIENTED_EDGE('',*,*,#257,.F.);
#325=ORIENTED_EDGE('',*,*,#258,.F.);
#326=ORIENTED_EDGE('',*,*,#259,.T.);
#327=ORIENTED_EDGE('',*,*,#258,.T.);
#328=ORIENTED_EDGE('',*,*,#260,.F.);
#329=ORIENTED_EDGE('',*,*,#261,.F.);
#330=ORIENTED_EDGE('',*,*,#262,.T.);
#331=ORIENTED_EDGE('',*,*,#263,.F.);
#332=ORIENTED_EDGE('',*,*,#261,.T.);
#333=ORIENTED_EDGE('',*,*,#264,.F.);
#334=ORIENTED_EDGE('',*,*,#243,.F.);
#335=ORIENTED_EDGE('',*,*,#265,.F.);
#336=ORIENTED_EDGE('',*,*,#266,.T.);
#337=ORIENTED_EDGE('',*,*,#245,.T.);
#338=ORIENTED_EDGE('',*,*,#267,.F.);
#339=ORIENTED_EDGE('',*,*,#247,.F.);
#340=ORIENTED_EDGE('',*,*,#267,.T.);
#341=ORIENTED_EDGE('',*,*,#244,.T.);
#342=ORIENTED_EDGE('',*,*,#264,.T.);
#343=ORIENTED_EDGE('',*,*,#260,.T.);
#344=ORIENTED_EDGE('',*,*,#257,.T.);
#345=ORIENTED_EDGE('',*,*,#254,.T.);
#346=ORIENTED_EDGE('',*,*,#251,.T.);
#347=ORIENTED_EDGE('',*,*,#248,.T.);
#348=ORIENTED_EDGE('',*,*,#268,.T.);
#349=ORIENTED_EDGE('',*,*,#269,.F.);
#350=ORIENTED_EDGE('',*,*,#270,.T.);
#351=ORIENTED_EDGE('',*,*,#271,.T.);
#352=ORIENTED_EDGE('',*,*,#272,.T.);
#353=ORIENTED_EDGE('',*,*,#273,.F.);
#354=ORIENTED_EDGE('',*,*,#274,.T.);
#355=ORIENTED_EDGE('',*,*,#269,.T.);
#356=ORIENTED_EDGE('',*,*,#275,.T.);
#357=ORIENTED_EDGE('',*,*,#276,.F.);
#358=ORIENTED_EDGE('',*,*,#259,.F.);
#359=ORIENTED_EDGE('',*,*,#273,.T.);
#360=ORIENTED_EDGE('',*,*,#277,.T.);
#361=ORIENTED_EDGE('',*,*,#278,.F.);
#362=ORIENTED_EDGE('',*,*,#256,.F.);
#363=ORIENTED_EDGE('',*,*,#276,.T.);
#364=ORIENTED_EDGE('',*,*,#279,.T.);
#365=ORIENTED_EDGE('',*,*,#280,.F.);
#366=ORIENTED_EDGE('',*,*,#253,.F.);
#367=ORIENTED_EDGE('',*,*,#278,.T.);
#368=ORIENTED_EDGE('',*,*,#281,.T.);
#369=ORIENTED_EDGE('',*,*,#282,.F.);
#370=ORIENTED_EDGE('',*,*,#250,.F.);
#371=ORIENTED_EDGE('',*,*,#280,.T.);
#372=ORIENTED_EDGE('',*,*,#283,.T.);
#373=ORIENTED_EDGE('',*,*,#284,.F.);
#374=ORIENTED_EDGE('',*,*,#246,.T.);
#375=ORIENTED_EDGE('',*,*,#282,.T.);
#376=ORIENTED_EDGE('',*,*,#285,.T.);
#377=ORIENTED_EDGE('',*,*,#271,.F.);
#378=ORIENTED_EDGE('',*,*,#265,.T.);
#379=ORIENTED_EDGE('',*,*,#284,.T.);
#380=ORIENTED_EDGE('',*,*,#268,.F.);
#381=ORIENTED_EDGE('',*,*,#285,.F.);
#382=ORIENTED_EDGE('',*,*,#283,.F.);
#383=ORIENTED_EDGE('',*,*,#281,.F.);
#384=ORIENTED_EDGE('',*,*,#279,.F.);
#385=ORIENTED_EDGE('',*,*,#277,.F.);
#386=ORIENTED_EDGE('',*,*,#275,.F.);
#387=ORIENTED_EDGE('',*,*,#272,.F.);
#388=ORIENTED_EDGE('',*,*,#286,.T.);
#389=ORIENTED_EDGE('',*,*,#287,.T.);
#390=ORIENTED_EDGE('',*,*,#263,.T.);
#391=ORIENTED_EDGE('',*,*,#242,.T.);
#392=ORIENTED_EDGE('',*,*,#288,.F.);
#393=ORIENTED_EDGE('',*,*,#289,.T.);
#394=ORIENTED_EDGE('',*,*,#288,.T.);
#395=ORIENTED_EDGE('',*,*,#266,.F.);
#396=ORIENTED_EDGE('',*,*,#290,.F.);
#397=ORIENTED_EDGE('',*,*,#291,.T.);
#398=ORIENTED_EDGE('',*,*,#290,.T.);
#399=ORIENTED_EDGE('',*,*,#270,.F.);
#400=ORIENTED_EDGE('',*,*,#274,.F.);
#401=ORIENTED_EDGE('',*,*,#292,.F.);
#402=ORIENTED_EDGE('',*,*,#293,.T.);
#403=ORIENTED_EDGE('',*,*,#292,.T.);
#404=ORIENTED_EDGE('',*,*,#262,.F.);
#405=ORIENTED_EDGE('',*,*,#287,.F.);
#406=ORIENTED_EDGE('',*,*,#293,.F.);
#407=ORIENTED_EDGE('',*,*,#286,.F.);
#408=ORIENTED_EDGE('',*,*,#289,.F.);
#409=ORIENTED_EDGE('',*,*,#291,.F.);
#410=ORIENTED_EDGE('',*,*,#294,.F.);
#411=ORIENTED_EDGE('',*,*,#295,.F.);
#412=ORIENTED_EDGE('',*,*,#296,.F.);
#413=ORIENTED_EDGE('',*,*,#297,.F.);
#414=ORIENTED_EDGE('',*,*,#295,.T.);
#415=ORIENTED_EDGE('',*,*,#298,.T.);
#416=ORIENTED_EDGE('',*,*,#299,.F.);
#417=ORIENTED_EDGE('',*,*,#300,.F.);
#418=ORIENTED_EDGE('',*,*,#294,.T.);
#419=ORIENTED_EDGE('',*,*,#301,.T.);
#420=ORIENTED_EDGE('',*,*,#302,.F.);
#421=ORIENTED_EDGE('',*,*,#298,.F.);
#422=ORIENTED_EDGE('',*,*,#296,.T.);
#423=ORIENTED_EDGE('',*,*,#300,.T.);
#424=ORIENTED_EDGE('',*,*,#303,.F.);
#425=ORIENTED_EDGE('',*,*,#304,.F.);
#426=ORIENTED_EDGE('',*,*,#297,.T.);
#427=ORIENTED_EDGE('',*,*,#304,.T.);
#428=ORIENTED_EDGE('',*,*,#305,.F.);
#429=ORIENTED_EDGE('',*,*,#301,.F.);
#430=ORIENTED_EDGE('',*,*,#302,.T.);
#431=ORIENTED_EDGE('',*,*,#305,.T.);
#432=ORIENTED_EDGE('',*,*,#303,.T.);
#433=ORIENTED_EDGE('',*,*,#299,.T.);
#434=PLANE('',#507);
#435=PLANE('',#508);
#436=PLANE('',#509);
#437=PLANE('',#510);
#438=PLANE('',#511);
#439=PLANE('',#512);
#440=PLANE('',#513);
#441=PLANE('',#514);
#442=PLANE('',#515);
#443=PLANE('',#516);
#444=PLANE('',#517);
#445=PLANE('',#518);
#446=PLANE('',#519);
#447=PLANE('',#520);
#448=PLANE('',#521);
#449=PLANE('',#522);
#450=PLANE('',#523);
#451=PLANE('',#524);
#452=PLANE('',#525);
#453=PLANE('',#526);
#454=PLANE('',#527);
#455=PLANE('',#528);
#456=PLANE('',#529);
#457=PLANE('',#530);
#458=PLANE('',#531);
#459=PLANE('',#532);
#460=PLANE('',#533);
#461=PLANE('',#534);
#462=PLANE('',#535);
#463=ADVANCED_FACE('',(#17),#434,.T.);
#464=ADVANCED_FACE('',(#18),#435,.T.);
#465=ADVANCED_FACE('',(#19),#436,.T.);
#466=ADVANCED_FACE('',(#20),#437,.T.);
#467=ADVANCED_FACE('',(#21),#438,.T.);
#468=ADVANCED_FACE('',(#22),#439,.T.);
#469=ADVANCED_FACE('',(#23),#440,.T.);
#470=ADVANCED_FACE('',(#24),#441,.T.);
#471=ADVANCED_FACE('',(#25),#442,.T.);
#472=ADVANCED_FACE('',(#26),#443,.T.);
#473=ADVANCED_FACE('',(#27),#444,.T.);
#474=ADVANCED_FACE('',(#28),#445,.T.);
#475=ADVANCED_FACE('',(#29),#446,.T.);
#476=ADVANCED_FACE('',(#30),#447,.T.);
#477=ADVANCED_FACE('',(#31),#448,.T.);
#478=ADVANCED_FACE('',(#32),#449,.T.);
#479=ADVANCED_FACE('',(#33),#450,.T.);
#480=ADVANCED_FACE('',(#34),#451,.T.);
#481=ADVANCED_FACE('',(#35),#452,.T.);
#482=ADVANCED_FACE('',(#36),#453,.T.);
#483=ADVANCED_FACE('',(#37),#454,.T.);
#484=ADVANCED_FACE('',(#38),#455,.T.);
#485=ADVANCED_FACE('',(#39),#456,.F.);
#486=ADVANCED_FACE('',(#40),#457,.F.);
#487=ADVANCED_FACE('',(#41),#458,.T.);
#488=ADVANCED_FACE('',(#42),#459,.T.);
#489=ADVANCED_FACE('',(#43),#460,.T.);
#490=ADVANCED_FACE('',(#44),#461,.T.);
#491=ADVANCED_FACE('',(#45),#462,.T.);
#492=CLOSED_SHELL('',(#463,#464,#465,#466,#467,#468,#469,#470,#471,#472,
#473,#474,#475,#476,#477,#478,#479,#480,#481,#482,#483,#484,#485));
#493=CLOSED_SHELL('',(#486,#487,#488,#489,#490,#491));
#494=DERIVED_UNIT_ELEMENT(#496,1.);
#495=DERIVED_UNIT_ELEMENT(#798,-3.);
#496=(
MASS_UNIT()
NAMED_UNIT(*)
SI_UNIT(.KILO.,.GRAM.)
);
#497=DERIVED_UNIT((#494,#495));
#498=MEASURE_REPRESENTATION_ITEM('density measure',
POSITIVE_RATIO_MEASURE(7850.),#497);
#499=PROPERTY_DEFINITION_REPRESENTATION(#504,#501);
#500=PROPERTY_DEFINITION_REPRESENTATION(#505,#502);
#501=REPRESENTATION('material name',(#503),#795);
#502=REPRESENTATION('density',(#498),#795);
#503=DESCRIPTIVE_REPRESENTATION_ITEM('Steel','Steel');
#504=PROPERTY_DEFINITION('material property','material name',#805);
#505=PROPERTY_DEFINITION('material property','density of part',#805);
#506=AXIS2_PLACEMENT_3D('',#660,#536,#537);
#507=AXIS2_PLACEMENT_3D('',#661,#538,#539);
#508=AXIS2_PLACEMENT_3D('',#670,#544,#545);
#509=AXIS2_PLACEMENT_3D('',#679,#550,#551);
#510=AXIS2_PLACEMENT_3D('',#685,#555,#556);
#511=AXIS2_PLACEMENT_3D('',#691,#560,#561);
#512=AXIS2_PLACEMENT_3D('',#697,#565,#566);
#513=AXIS2_PLACEMENT_3D('',#705,#571,#572);
#514=AXIS2_PLACEMENT_3D('',#708,#575,#576);
#515=AXIS2_PLACEMENT_3D('',#713,#580,#581);
#516=AXIS2_PLACEMENT_3D('',#714,#582,#583);
#517=AXIS2_PLACEMENT_3D('',#722,#588,#589);
#518=AXIS2_PLACEMENT_3D('',#727,#593,#594);
#519=AXIS2_PLACEMENT_3D('',#731,#597,#598);
#520=AXIS2_PLACEMENT_3D('',#735,#601,#602);
#521=AXIS2_PLACEMENT_3D('',#739,#605,#606);
#522=AXIS2_PLACEMENT_3D('',#743,#609,#610);
#523=AXIS2_PLACEMENT_3D('',#747,#613,#614);
#524=AXIS2_PLACEMENT_3D('',#749,#616,#617);
#525=AXIS2_PLACEMENT_3D('',#750,#618,#619);
#526=AXIS2_PLACEMENT_3D('',#756,#623,#624);
#527=AXIS2_PLACEMENT_3D('',#760,#627,#628);
#528=AXIS2_PLACEMENT_3D('',#764,#631,#632);
#529=AXIS2_PLACEMENT_3D('',#766,#634,#635);
#530=AXIS2_PLACEMENT_3D('',#767,#636,#637);
#531=AXIS2_PLACEMENT_3D('',#776,#642,#643);
#532=AXIS2_PLACEMENT_3D('',#782,#647,#648);
#533=AXIS2_PLACEMENT_3D('',#786,#651,#652);
#534=AXIS2_PLACEMENT_3D('',#790,#655,#656);
#535=AXIS2_PLACEMENT_3D('',#792,#658,#659);
#536=DIRECTION('axis',(0.,0.,1.));
#537=DIRECTION('refdir',(1.,0.,0.));
#538=DIRECTION('center_axis',(-0.707106802259971,0.,-0.707106760113123));
#539=DIRECTION('ref_axis',(-0.707106760113123,0.,0.707106802259971));
#540=DIRECTION('',(0.707106781186548,0.,-0.707106781186548));
#541=DIRECTION('',(0.,1.,0.));
#542=DIRECTION('',(-0.707106760113123,0.,0.707106802259971));
#543=DIRECTION('',(0.,1.,0.));
#544=DIRECTION('center_axis',(0.707106791723259,0.,-0.707106770649836));
#545=DIRECTION('ref_axis',(-0.707106770649836,0.,-0.707106791723259));
#546=DIRECTION('',(0.707106770649836,0.,0.707106791723259));
#547=DIRECTION('',(0.,1.,0.));
#548=DIRECTION('',(-0.707106770649836,0.,-0.707106791723259));
#549=DIRECTION('',(0.,1.,0.));
#550=DIRECTION('center_axis',(0.701058151261766,0.,0.713104107791727));
#551=DIRECTION('ref_axis',(0.713104107791727,0.,-0.701058151261766));
#552=DIRECTION('',(0.713104107791727,0.,-0.701058151261766));
#553=DIRECTION('',(0.713104107791727,0.,-0.701058151261766));
#554=DIRECTION('',(0.,1.,0.));
#555=DIRECTION('center_axis',(-0.707106728502982,0.,0.707106833870109));
#556=DIRECTION('ref_axis',(0.707106833870109,0.,0.707106728502982));
#557=DIRECTION('',(0.707106833870109,0.,0.707106728502982));
#558=DIRECTION('',(0.707106833870109,0.,0.707106728502982));
#559=DIRECTION('',(0.,1.,0.));
#560=DIRECTION('center_axis',(-0.70710683387011,0.,-0.707106728502981));
#561=DIRECTION('ref_axis',(-0.707106728502981,0.,0.70710683387011));
#562=DIRECTION('',(-0.707106728502981,0.,0.70710683387011));
#563=DIRECTION('',(-0.707106728502981,0.,0.70710683387011));
#564=DIRECTION('',(0.,1.,0.));
#565=DIRECTION('center_axis',(0.707106728502982,0.,-0.707106833870109));
#566=DIRECTION('ref_axis',(-0.707106833870109,0.,-0.707106728502982));
#567=DIRECTION('',(-0.707106833870109,0.,-0.707106728502982));
#568=DIRECTION('',(-0.707106833870109,0.,-0.707106728502982));
#569=DIRECTION('',(0.,1.,0.));
#570=DIRECTION('',(-1.60812264967664E-16,-1.,0.));
#571=DIRECTION('center_axis',(0.707106791723259,0.,-0.707106770649836));
#572=DIRECTION('ref_axis',(-0.707106770649836,0.,-0.707106791723259));
#573=DIRECTION('',(0.707106781186548,0.,0.707106781186548));
#574=DIRECTION('',(-0.707106770649836,0.,-0.707106791723259));
#575=DIRECTION('center_axis',(-0.707106770649836,0.,-0.707106791723259));
#576=DIRECTION('ref_axis',(-0.707106791723259,0.,0.707106770649836));
#577=DIRECTION('',(0.707106791723259,0.,-0.707106770649836));
#578=DIRECTION('',(0.,1.,0.));
#579=DIRECTION('',(-0.707106791723259,0.,0.707106770649836));
#580=DIRECTION('center_axis',(0.,1.,0.));
#581=DIRECTION('ref_axis',(0.,0.,1.));
#582=DIRECTION('center_axis',(-0.706999106469038,0.0174524064372835,-0.70699906432861));
#583=DIRECTION('ref_axis',(0.707106760113123,0.,-0.707106802259971));
#584=DIRECTION('',(-0.707106760113123,0.,0.707106802259971));
#585=DIRECTION('',(-1.83861887373092E-10,-0.99969545986828,-0.0246776724743001));
#586=DIRECTION('',(0.707106781186548,0.,-0.707106781186548));
#587=DIRECTION('',(-0.0123407153076089,-0.999847695156391,-0.0123407145720449));
#588=DIRECTION('center_axis',(0.706999095933931,0.017452406437285,-0.706999074863717));
#589=DIRECTION('ref_axis',(0.707106770649836,0.,0.707106791723259));
#590=DIRECTION('',(-0.707106770649836,0.,-0.707106791723259));
#591=DIRECTION('',(0.0123407140203719,-0.999847695156391,-0.0123407158592824));
#592=DIRECTION('',(0.707106781186548,0.,0.707106781186548));
#593=DIRECTION('center_axis',(0.706999032723283,0.0174524064372839,-0.706999138074362));
#594=DIRECTION('ref_axis',(0.707106833870109,0.,0.707106728502982));
#595=DIRECTION('',(-0.707106833870109,0.,-0.707106728502982));
#596=DIRECTION('',(-1.8386295631225E-9,-0.999695459881887,-0.0246776719230461));
#597=DIRECTION('center_axis',(-0.706999138074362,0.0174524064372833,-0.706999032723282));
#598=DIRECTION('ref_axis',(0.707106728502981,0.,-0.70710683387011));
#599=DIRECTION('',(-0.707106728502981,0.,0.70710683387011));
#600=DIRECTION('',(-0.0246776719230463,-0.999695459881887,1.83863058140523E-9));
#601=DIRECTION('center_axis',(-0.706999032723282,0.0174524064372842,0.706999138074362));
#602=DIRECTION('ref_axis',(-0.707106833870109,0.,-0.707106728502982));
#603=DIRECTION('',(0.707106833870109,0.,0.707106728502982));
#604=DIRECTION('',(-0.000104654991342739,-0.999698030835697,0.0245730785731467));
#605=DIRECTION('center_axis',(0.700951376709677,0.0174524064372839,0.712995498582113));
#606=DIRECTION('ref_axis',(-0.713104107791727,0.,0.701058151261766));
#607=DIRECTION('',(0.713104107791727,0.,-0.701058151261766));
#608=DIRECTION('',(0.0247831578101925,-0.999692844801833,0.000105550811762715));
#609=DIRECTION('center_axis',(0.70699909593393,0.0174524064372844,-0.706999074863718));
#610=DIRECTION('ref_axis',(0.707106770649836,0.,0.707106791723259));
#611=DIRECTION('',(-0.707106770649836,0.,-0.707106791723259));
#612=DIRECTION('',(3.67725493862234E-10,-0.999695459881887,-0.0246776719230477));
#613=DIRECTION('center_axis',(-0.706999074863718,0.017452406437285,-0.70699909593393));
#614=DIRECTION('ref_axis',(0.707106791723259,0.,-0.707106770649836));
#615=DIRECTION('',(-0.707106791723259,0.,0.707106770649836));
#616=DIRECTION('center_axis',(0.,-1.,0.));
#617=DIRECTION('ref_axis',(1.,0.,0.));
#618=DIRECTION('center_axis',(0.,1.,0.));
#619=DIRECTION('ref_axis',(-1.,0.,0.));
#620=DIRECTION('',(-1.,0.,0.));
#621=DIRECTION('',(0.,0.,1.));
#622=DIRECTION('',(0.,0.,1.));
#623=DIRECTION('center_axis',(1.,0.,0.));
#624=DIRECTION('ref_axis',(0.,1.,0.));
#625=DIRECTION('',(0.,1.,0.));
#626=DIRECTION('',(0.,0.,1.));
#627=DIRECTION('center_axis',(0.,-1.,0.));
#628=DIRECTION('ref_axis',(1.,0.,0.));
#629=DIRECTION('',(1.,0.,0.));
#630=DIRECTION('',(0.,0.,1.));
#631=DIRECTION('center_axis',(-1.,1.60812264967664E-16,0.));
#632=DIRECTION('ref_axis',(-1.60812264967664E-16,-1.,0.));
#633=DIRECTION('',(-1.60812264967664E-16,-1.,0.));
#634=DIRECTION('center_axis',(0.,0.,1.));
#635=DIRECTION('ref_axis',(1.,0.,0.));
#636=DIRECTION('center_axis',(0.,1.,0.));
#637=DIRECTION('ref_axis',(0.,0.,1.));
#638=DIRECTION('',(0.,0.,1.));
#639=DIRECTION('',(-0.707106833870109,0.,-0.707106728502982));
#640=DIRECTION('',(0.,0.,-1.));
#641=DIRECTION('',(1.,0.,0.));
#642=DIRECTION('center_axis',(0.707106728502982,0.,-0.707106833870109));
#643=DIRECTION('ref_axis',(-0.707106833870109,0.,-0.707106728502982));
#644=DIRECTION('',(0.,1.,0.));
#645=DIRECTION('',(-0.707106833870109,0.,-0.707106728502982));
#646=DIRECTION('',(0.,1.,0.));
#647=DIRECTION('center_axis',(-1.,0.,0.));
#648=DIRECTION('ref_axis',(0.,0.,1.));
#649=DIRECTION('',(0.,1.,0.));
#650=DIRECTION('',(0.,0.,1.));
#651=DIRECTION('center_axis',(1.,0.,0.));
#652=DIRECTION('ref_axis',(0.,0.,-1.));
#653=DIRECTION('',(0.,0.,-1.));
#654=DIRECTION('',(0.,1.,0.));
#655=DIRECTION('center_axis',(0.,0.,1.));
#656=DIRECTION('ref_axis',(1.,0.,0.));
#657=DIRECTION('',(1.,0.,0.));
#658=DIRECTION('center_axis',(0.,1.,0.));
#659=DIRECTION('ref_axis',(0.,0.,1.));
#660=CARTESIAN_POINT('',(0.,0.,0.));
#661=CARTESIAN_POINT('Origin',(10.,0.,10.));
#662=CARTESIAN_POINT('',(5.00000007450581,10.,15.0000002235174));
#663=CARTESIAN_POINT('',(10.,10.,10.));
#664=CARTESIAN_POINT('',(5.00000007450581,10.,15.0000002235174));
#665=CARTESIAN_POINT('',(5.00000007450581,11.,15.0000002235174));
#666=CARTESIAN_POINT('',(5.00000007450581,0.,15.0000002235174));
#667=CARTESIAN_POINT('',(10.,11.,10.));
#668=CARTESIAN_POINT('',(10.,11.,10.));
#669=CARTESIAN_POINT('',(10.,0.,10.));
#670=CARTESIAN_POINT('Origin',(12.1213203435596,0.,10.0000000316101));
#671=CARTESIAN_POINT('',(11.0606601875849,0.,8.93933984402525));
#672=CARTESIAN_POINT('',(12.1213203435596,0.,10.0000000316101));
#673=CARTESIAN_POINT('',(11.0606601875849,0.,8.93933984402525));
#674=CARTESIAN_POINT('',(11.0606601875849,11.,8.93933984402525));
#675=CARTESIAN_POINT('',(11.0606601875849,0.,8.93933984402525));
#676=CARTESIAN_POINT('',(12.1213203435596,11.,10.0000000316101));
#677=CARTESIAN_POINT('',(11.0606601875849,11.,8.93933984402525));
#678=CARTESIAN_POINT('',(12.1213203435596,0.,10.0000000316101));
#679=CARTESIAN_POINT('Origin',(4.93934044368732,0.,17.0606598931772));
#680=CARTESIAN_POINT('',(4.93934044368732,0.,17.0606598931772));
#681=CARTESIAN_POINT('',(4.93934044368732,0.,17.0606598931772));
#682=CARTESIAN_POINT('',(4.93934044368732,11.,17.0606598931772));
#683=CARTESIAN_POINT('',(4.93934044368732,11.,17.0606598931772));
#684=CARTESIAN_POINT('',(4.93934044368732,0.,17.0606598931772));
#685=CARTESIAN_POINT('Origin',(-2.12132034355964,0.,10.0000001580507));
#686=CARTESIAN_POINT('',(-2.12132034355964,0.,10.0000001580507));
#687=CARTESIAN_POINT('',(-2.12132034355964,0.,10.0000001580507));
#688=CARTESIAN_POINT('',(-2.12132034355964,11.,10.0000001580507));
#689=CARTESIAN_POINT('',(-2.12132034355964,11.,10.0000001580507));
#690=CARTESIAN_POINT('',(-2.12132034355964,0.,10.0000001580507));
#691=CARTESIAN_POINT('Origin',(-1.06066025080516,0.,8.93933990724553));
#692=CARTESIAN_POINT('',(-1.06066025080516,0.,8.93933990724553));
#693=CARTESIAN_POINT('',(-1.06066025080516,0.,8.93933990724553));
#694=CARTESIAN_POINT('',(-1.06066025080517,11.,8.93933990724553));
#695=CARTESIAN_POINT('',(-1.06066025080516,11.,8.93933990724553));
#696=CARTESIAN_POINT('',(-1.06066025080516,0.,8.93933990724553));
#697=CARTESIAN_POINT('Origin',(0.,0.,10.));
#698=CARTESIAN_POINT('',(0.,0.,10.));
#699=CARTESIAN_POINT('',(0.,0.,10.));
#700=CARTESIAN_POINT('',(0.,11.,10.));
#701=CARTESIAN_POINT('',(0.,11.,10.));
#702=CARTESIAN_POINT('',(1.60812264967664E-15,10.,10.));
#703=CARTESIAN_POINT('',(0.,0.,10.));
#704=CARTESIAN_POINT('',(1.60812264967664E-15,10.,10.));
#705=CARTESIAN_POINT('Origin',(5.00000007450581,0.,15.0000002235174));
#706=CARTESIAN_POINT('',(0.,10.,10.0000001490116));
#707=CARTESIAN_POINT('',(5.00000007450581,11.,15.0000002235174));
#708=CARTESIAN_POINT('Origin',(11.0606601875849,0.,8.93933984402525));
#709=CARTESIAN_POINT('',(10.,0.,10.));
#710=CARTESIAN_POINT('',(10.,0.,10.));
#711=CARTESIAN_POINT('',(10.,0.,10.));
#712=CARTESIAN_POINT('',(10.,11.,10.));
#713=CARTESIAN_POINT('Origin',(5.,11.,12.9999998686012));
#714=CARTESIAN_POINT('Origin',(10.,0.,10.));
#715=CARTESIAN_POINT('',(9.98765740485537,-1.,9.98765740559104));
#716=CARTESIAN_POINT('',(5.00000007432189,-1.,14.9753150334121));
#717=CARTESIAN_POINT('',(9.98765740485537,-1.,9.98765740559104));
#718=CARTESIAN_POINT('',(5.00000007450581,0.,15.0000002235174));
#719=CARTESIAN_POINT('',(5.00000007449446,-0.0616753951292757,14.9984777546638));
#720=CARTESIAN_POINT('',(5.00000007450581,0.,15.0000002235174));
#721=CARTESIAN_POINT('',(10.,0.,10.));
#722=CARTESIAN_POINT('Origin',(5.00000007450581,0.,15.0000002235174));
#723=CARTESIAN_POINT('',(0.0123425938571991,-1.,9.98765740430361));
#724=CARTESIAN_POINT('',(5.01234266946652,-1.,14.9876576289245));
#725=CARTESIAN_POINT('',(0.,0.,10.));
#726=CARTESIAN_POINT('',(0.,0.,10.0000001490116));
#727=CARTESIAN_POINT('Origin',(0.,0.,10.));
#728=CARTESIAN_POINT('',(-1.06066025264435,-1.,8.91465471769194));
#729=CARTESIAN_POINT('',(0.0123425938571991,-1.,9.98765740430361));
#730=CARTESIAN_POINT('',(-1.0606602507811,0.0130833262590091,8.93966287163422));
#731=CARTESIAN_POINT('Origin',(-1.06066025080516,0.,8.93933990724553));
#732=CARTESIAN_POINT('',(-2.14600553311322,-1.,10.0000001598899));
#733=CARTESIAN_POINT('',(-1.07300284650155,-1.,8.92699731338833));
#734=CARTESIAN_POINT('',(-2.12099737917094,0.0130833262590097,10.0000001580266));
#735=CARTESIAN_POINT('Origin',(-2.12132034355964,0.,10.0000001580507));
#736=CARTESIAN_POINT('',(4.93923575708385,-1.,17.0852403943037));
#737=CARTESIAN_POINT('',(-2.13366293741684,-1.,10.0123427537471));
#738=CARTESIAN_POINT('',(4.93934948395361,0.0863555219464426,17.0585372311727));
#739=CARTESIAN_POINT('Origin',(4.93934044368732,0.,17.0606598931772));
#740=CARTESIAN_POINT('',(12.1461111159845,-1.,10.0001056148523));
#741=CARTESIAN_POINT('',(4.95157745923605,-1.,17.0731071716793));
#742=CARTESIAN_POINT('',(12.1191239748249,0.0885962202833829,9.99999067733395));
#743=CARTESIAN_POINT('Origin',(12.1213203435596,0.,10.0000000316101));
#744=CARTESIAN_POINT('',(11.0606601879527,-1.,8.91465465447166));
#745=CARTESIAN_POINT('',(11.0730027825456,-1.,8.92699724943237));
#746=CARTESIAN_POINT('',(11.0606601875801,0.0130833262590103,8.93966280841394));
#747=CARTESIAN_POINT('Origin',(11.0606601875849,0.,8.93933984402525));
#748=CARTESIAN_POINT('',(9.98765740540712,-1.,9.98765740503929));
#749=CARTESIAN_POINT('Origin',(5.,-1.,12.9999998686012));
#750=CARTESIAN_POINT('Origin',(10.,10.,0.));
#751=CARTESIAN_POINT('',(10.,10.,0.));
#752=CARTESIAN_POINT('',(1.60812264967664E-15,10.,0.));
#753=CARTESIAN_POINT('',(10.,10.,0.));
#754=CARTESIAN_POINT('',(1.60812264967664E-15,10.,0.));
#755=CARTESIAN_POINT('',(10.,10.,0.));
#756=CARTESIAN_POINT('Origin',(10.,0.,0.));
#757=CARTESIAN_POINT('',(10.,0.,0.));
#758=CARTESIAN_POINT('',(10.,0.,0.));
#759=CARTESIAN_POINT('',(10.,0.,0.));
#760=CARTESIAN_POINT('Origin',(0.,0.,0.));
#761=CARTESIAN_POINT('',(0.,0.,0.));
#762=CARTESIAN_POINT('',(0.,0.,0.));
#763=CARTESIAN_POINT('',(0.,0.,0.));
#764=CARTESIAN_POINT('Origin',(1.60812264967664E-15,10.,0.));
#765=CARTESIAN_POINT('',(1.60812264967664E-15,10.,0.));
#766=CARTESIAN_POINT('Origin',(5.,5.,0.));
#767=CARTESIAN_POINT('Origin',(2.00000002980232,5.,15.0730027462163));
#768=CARTESIAN_POINT('',(1.00000001490116,5.,13.1460052391129));
#769=CARTESIAN_POINT('',(1.00000001490116,5.,17.0000002533197));
#770=CARTESIAN_POINT('',(1.00000001490116,5.,14.1095039926646));
#771=CARTESIAN_POINT('',(3.00000004470348,5.,15.146004970892));
#772=CARTESIAN_POINT('',(2.73174944755637,5.,14.8777544137173));
#773=CARTESIAN_POINT('',(3.00000004470348,5.,17.0000002533197));
#774=CARTESIAN_POINT('',(3.00000004470348,5.,16.036501499768));
#775=CARTESIAN_POINT('',(1.50000002235174,5.,17.0000002533197));
#776=CARTESIAN_POINT('Origin',(3.00000004470348,0.,15.146004970892));
#777=CARTESIAN_POINT('',(1.00000001490116,6.5,13.1460052391129));
#778=CARTESIAN_POINT('',(1.00000001490116,0.,13.1460052391129));
#779=CARTESIAN_POINT('',(3.00000004470348,6.5,15.146004970892));
#780=CARTESIAN_POINT('',(1.00000001490116,6.5,13.1460052391129));
#781=CARTESIAN_POINT('',(3.00000004470348,0.,15.146004970892));
#782=CARTESIAN_POINT('Origin',(1.00000001490116,0.,13.1460052391129));
#783=CARTESIAN_POINT('',(1.00000001490116,6.5,17.0000002533197));
#784=CARTESIAN_POINT('',(1.00000001490116,0.,17.0000002533197));
#785=CARTESIAN_POINT('',(1.00000001490116,6.5,13.0000001937151));
#786=CARTESIAN_POINT('Origin',(3.00000004470348,0.,17.0000002533197));
#787=CARTESIAN_POINT('',(3.00000004470348,6.5,17.0000002533197));
#788=CARTESIAN_POINT('',(3.00000004470348,6.5,17.0000002533197));
#789=CARTESIAN_POINT('',(3.00000004470348,0.,17.0000002533197));
#790=CARTESIAN_POINT('Origin',(1.00000001490116,0.,17.0000002533197));
#791=CARTESIAN_POINT('',(1.00000001490116,6.5,17.0000002533197));
#792=CARTESIAN_POINT('Origin',(2.00000002980232,6.5,15.0730027462163));
#793=UNCERTAINTY_MEASURE_WITH_UNIT(LENGTH_MEASURE(0.01),#797,
'DISTANCE_ACCURACY_VALUE',
'Maximum model space distance between geometric entities at asserted c
onnectivities');
#794=UNCERTAINTY_MEASURE_WITH_UNIT(LENGTH_MEASURE(0.01),#797,
'DISTANCE_ACCURACY_VALUE',
'Maximum model space distance between geometric entities at asserted c
onnectivities');
#795=(
GEOMETRIC_REPRESENTATION_CONTEXT(3)
GLOBAL_UNCERTAINTY_ASSIGNED_CONTEXT((#793))
GLOBAL_UNIT_ASSIGNED_CONTEXT((#797,#799,#800))
REPRESENTATION_CONTEXT('','3D')
);
#796=(
GEOMETRIC_REPRESENTATION_CONTEXT(3)
GLOBAL_UNCERTAINTY_ASSIGNED_CONTEXT((#794))
GLOBAL_UNIT_ASSIGNED_CONTEXT((#797,#799,#800))
REPRESENTATION_CONTEXT('','3D')
);
#797=(
LENGTH_UNIT()
NAMED_UNIT(*)
SI_UNIT(.MILLI.,.METRE.)
);
#798=(
LENGTH_UNIT()
NAMED_UNIT(*)
SI_UNIT($,.METRE.)
);
#799=(
NAMED_UNIT(*)
PLANE_ANGLE_UNIT()
SI_UNIT($,.RADIAN.)
);
#800=(
NAMED_UNIT(*)
SI_UNIT($,.STERADIAN.)
SOLID_ANGLE_UNIT()
);
#801=SHAPE_DEFINITION_REPRESENTATION(#802,#803);
#802=PRODUCT_DEFINITION_SHAPE('',$,#805);
#803=SHAPE_REPRESENTATION('',(#506),#795);
#804=PRODUCT_DEFINITION_CONTEXT('part definition',#809,'design');
#805=PRODUCT_DEFINITION('house','house v1',#806,#804);
#806=PRODUCT_DEFINITION_FORMATION('',$,#811);
#807=PRODUCT_RELATED_PRODUCT_CATEGORY('house v1','house v1',(#811));
#808=APPLICATION_PROTOCOL_DEFINITION('international standard',
'automotive_design',2009,#809);
#809=APPLICATION_CONTEXT(
'Core Data for Automotive Mechanical Design Process');
#810=PRODUCT_CONTEXT('part definition',#809,'mechanical');
#811=PRODUCT('house','house v1',$,(#810));
#812=PRESENTATION_STYLE_ASSIGNMENT((#813));
#813=SURFACE_STYLE_USAGE(.BOTH.,#814);
#814=SURFACE_SIDE_STYLE('',(#815));
#815=SURFACE_STYLE_FILL_AREA(#816);
#816=FILL_AREA_STYLE('Steel - Satin',(#817));
#817=FILL_AREA_STYLE_COLOUR('Steel - Satin',#818);
#818=COLOUR_RGB('Steel - Satin',0.627450980392157,0.627450980392157,0.627450980392157);
ENDSEC;
END-ISO-10303-21;
